<svg xmlns="http://www.w3.org/2000/svg" viewBox="0 0 1600 900">
  <defs>
    <linearGradient id="dusk" x1="0" y1="0" x2="0" y2="1">
      <stop offset="0%" stop-color="#2b1b21"/>
      <stop offset="44%" stop-color="#5b3a33"/>
      <stop offset="100%" stop-color="#846548"/>
    </linearGradient>
  </defs>
  <rect width="1600" height="900" fill="url(#dusk)"/>
  <circle cx="1120" cy="160" r="92" fill="#f3b666" fill-opacity=".64"/>
  <path d="M0 690 Q230 560 500 690 T1120 670 T1600 610 V900 H0 Z" fill="#3a2a27"/>
  <path d="M0 760 Q260 690 600 780 T1600 710 V900 H0 Z" fill="#24191a"/>
  <g transform="translate(910 240)" fill="#201415">
    <rect x="180" y="40" width="170" height="450" rx="8"/>
    <rect x="0" y="40" width="170" height="450" rx="8"/>
    <path d="M0 90 h350 v390 h-70 v-320 h-210 v320 h-70Z"/>
    <rect x="130" y="0" width="90" height="110" rx="12"/>
  </g>
  <g fill="#4f3831">
    <rect x="190" y="510" width="120" height="220" rx="10"/>
    <rect x="320" y="470" width="84" height="260" rx="10"/>
    <rect x="448" y="530" width="98" height="200" rx="10"/>
  </g>
  <path d="M260 816 C510 732 700 728 930 804" fill="none" stroke="#f1d59b" stroke-opacity=".38" stroke-width="16" stroke-linecap="round"/>
</svg>
