<svg xmlns="http://www.w3.org/2000/svg" width="1920" height="1080" viewBox="0 0 1920 1080">
  <defs>
    <linearGradient id="bg2" x1="0" y1="0" x2="1" y2="1">
      <stop offset="0" stop-color="#f7f4ea"/>
      <stop offset="0.54" stop-color="#f1f5f1"/>
      <stop offset="1" stop-color="#eef2f6"/>
    </linearGradient>
    <filter id="shadow2" x="-20%" y="-20%" width="140%" height="140%">
      <feDropShadow dx="0" dy="12" stdDeviation="14" flood-color="#21303a" flood-opacity="0.16"/>
    </filter>
    <marker id="arrow2" markerWidth="10" markerHeight="10" refX="9" refY="5" orient="auto" markerUnits="strokeWidth">
      <path d="M1,1 L9,5 L1,9 Z" fill="#55636c"/>
    </marker>
    <marker id="bridge2" markerWidth="10" markerHeight="10" refX="9" refY="5" orient="auto" markerUnits="strokeWidth">
      <path d="M1,1 L9,5 L1,9 Z" fill="#b16a26"/>
    </marker>
    <style>
      .title { font: 900 52px "Noto Sans SC", "Microsoft YaHei", sans-serif; fill:#182028; letter-spacing:0; }
      .sub { font: 500 23px "Noto Sans SC", "Microsoft YaHei", sans-serif; fill:#51616c; }
      .lane { font: 900 25px "Noto Sans SC", "Microsoft YaHei", sans-serif; fill:#1a252d; }
      .nodeName { font: 900 22px "Noto Sans SC", "Microsoft YaHei", sans-serif; fill:#17232b; }
      .nodeMeta { font: 700 15px "Noto Sans SC", "Microsoft YaHei", sans-serif; fill:#52606b; }
      .note { font: 500 17px "Noto Sans SC", "Microsoft YaHei", sans-serif; fill:#53606a; }
      .warn { font: 900 15px "Noto Sans SC", "Microsoft YaHei", sans-serif; fill:#9d3b2c; }
      .legend { font: 700 18px "Noto Sans SC", "Microsoft YaHei", sans-serif; fill:#24323b; }
      .small { font: 500 16px "Noto Sans SC", "Microsoft YaHei", sans-serif; fill:#59666f; }
    </style>
  </defs>
  <rect width="1920" height="1080" fill="url(#bg2)"/>
  <text x="76" y="76" class="title">推荐部署草图：保留梗名，但把梗落到机制</text>
  <text x="80" y="116" class="sub">这不是最终视觉排版，是技能合理化草图：按当前 32 个正式节点重排语义，并标出需要补执行语义的节点。</text>

  <g id="lanes">
    <rect x="60" y="156" width="1800" height="152" rx="22" fill="#f3fbf8" stroke="#bdd9cf"/>
    <rect x="60" y="332" width="1800" height="152" rx="22" fill="#fff7e8" stroke="#e3c184"/>
    <rect x="60" y="508" width="1800" height="152" rx="22" fill="#fff1ee" stroke="#d9a095"/>
    <rect x="60" y="684" width="1800" height="152" rx="22" fill="#edf5fb" stroke="#b3cde2"/>
    <rect x="60" y="860" width="1800" height="142" rx="22" fill="#f5f0fa" stroke="#c9b6d9"/>
    <text x="94" y="198" class="lane">护甲经济</text>
    <text x="94" y="374" class="lane">重击破甲</text>
    <text x="94" y="550" class="lane">流血收益</text>
    <text x="94" y="726" class="lane">机动节奏</text>
    <text x="94" y="902" class="lane">风险代价</text>
  </g>

  <g stroke="#67747c" stroke-width="3.2" fill="none" marker-end="url(#arrow2)" opacity="0.8">
    <path d="M348 232 L456 232"/>
    <path d="M610 232 L716 232"/>
    <path d="M610 232 L716 184"/>
    <path d="M610 232 L716 280"/>
    <path d="M868 184 L974 184"/>
    <path d="M868 232 L974 232"/>
    <path d="M868 280 L974 280"/>
    <path d="M1128 232 L1234 232"/>
    <path d="M1386 232 L1494 232"/>

    <path d="M348 408 L456 408"/>
    <path d="M608 408 L716 408"/>
    <path d="M868 408 L976 376"/>
    <path d="M868 408 L976 444"/>
    <path d="M1128 376 L1234 376"/>

    <path d="M348 584 L456 584"/>
    <path d="M608 584 L716 548"/>
    <path d="M608 584 L716 620"/>
    <path d="M868 548 L976 548"/>
    <path d="M868 620 L976 620"/>
    <path d="M1128 548 L1234 548"/>

    <path d="M348 760 L456 760"/>
    <path d="M608 760 L716 724"/>
    <path d="M608 760 L716 796"/>
    <path d="M868 724 L976 724"/>
    <path d="M1128 724 L1234 724"/>

    <path d="M348 936 L456 936"/>
    <path d="M608 936 L716 936"/>
  </g>

  <g stroke="#b16a26" stroke-width="4" fill="none" marker-end="url(#bridge2)" stroke-dasharray="10 10">
    <path d="M868 280 C930 340 938 620 976 620"/>
    <path d="M868 724 C928 690 916 620 976 620"/>
    <path d="M868 796 C934 834 970 898 976 936"/>
    <path d="M1128 548 C1198 522 1220 462 976 444"/>
    <path d="M1128 232 C1204 302 1218 344 976 376"/>
    <path d="M608 936 C628 840 660 790 716 796"/>
  </g>

  <g id="nodes" filter="url(#shadow2)">
    <g transform="translate(208 194)"><rect width="140" height="76" rx="14" fill="#ffffff" stroke="#58a895" stroke-width="3"/><text x="70" y="31" text-anchor="middle" class="nodeName">修理护甲</text><text x="70" y="56" text-anchor="middle" class="nodeMeta">KP1 / AP1</text></g>
    <g transform="translate(456 194)"><rect width="152" height="76" rx="14" fill="#ffffff" stroke="#58a895" stroke-width="3"/><text x="76" y="31" text-anchor="middle" class="nodeName">铁头/手/腿</text><text x="76" y="56" text-anchor="middle" class="nodeMeta">部位护甲入口</text></g>
    <g transform="translate(716 146)"><rect width="152" height="76" rx="14" fill="#ffffff" stroke="#58a895" stroke-width="3"/><text x="76" y="31" text-anchor="middle" class="nodeName">光头</text><text x="76" y="56" text-anchor="middle" class="nodeMeta">弃头甲换 AP</text></g>
    <g transform="translate(716 194)"><rect width="152" height="76" rx="14" fill="#ffffff" stroke="#58a895" stroke-width="3"/><text x="76" y="31" text-anchor="middle" class="nodeName">顺手捡漏</text><text x="76" y="56" text-anchor="middle" class="nodeMeta">攻击获甲</text></g>
    <g transform="translate(716 242)"><rect width="152" height="76" rx="14" fill="#ffffff" stroke="#58a895" stroke-width="3"/><text x="76" y="31" text-anchor="middle" class="nodeName">光脚</text><text x="76" y="56" text-anchor="middle" class="nodeMeta">弃腿甲换加速</text></g>
    <g transform="translate(976 146)"><rect width="152" height="76" rx="14" fill="#ffffff" stroke="#58a895" stroke-width="3"/><text x="76" y="31" text-anchor="middle" class="nodeName">泥巴装甲</text><text x="76" y="56" text-anchor="middle" class="nodeMeta">全身薄甲</text></g>
    <g transform="translate(976 194)"><rect width="152" height="76" rx="14" fill="#ffffff" stroke="#58a895" stroke-width="3"/><text x="76" y="31" text-anchor="middle" class="nodeName">重拳</text><text x="76" y="56" text-anchor="middle" class="nodeMeta">花手甲破甲</text></g>
    <g transform="translate(976 242)"><rect width="152" height="76" rx="14" fill="#fffdf7" stroke="#c58e47" stroke-width="3"/><text x="76" y="28" text-anchor="middle" class="nodeName">西海岸</text><text x="76" y="52" text-anchor="middle" class="warn">补 buff_shield</text></g>
    <g transform="translate(1234 194)"><rect width="152" height="76" rx="14" fill="#ffffff" stroke="#58a895" stroke-width="3"/><text x="76" y="31" text-anchor="middle" class="nodeName">受击备甲</text><text x="76" y="56" text-anchor="middle" class="nodeMeta">受击先获甲</text></g>
    <g transform="translate(1494 194)"><rect width="152" height="76" rx="14" fill="#ffffff" stroke="#58a895" stroke-width="3"/><text x="76" y="31" text-anchor="middle" class="nodeName">堡垒姿态</text><text x="76" y="56" text-anchor="middle" class="nodeMeta">立即甲+续甲</text></g>
    <g transform="translate(1666 194)"><rect width="152" height="76" rx="14" fill="#ffffff" stroke="#58a895" stroke-width="3"/><text x="76" y="31" text-anchor="middle" class="nodeName">绝对防御</text><text x="76" y="56" text-anchor="middle" class="nodeMeta">护甲免伤</text></g>

    <g transform="translate(208 370)"><rect width="140" height="76" rx="14" fill="#ffffff" stroke="#d49b3d" stroke-width="3"/><text x="70" y="31" text-anchor="middle" class="nodeName">重锤</text><text x="70" y="56" text-anchor="middle" class="nodeMeta">KP1 / AP2</text></g>
    <g transform="translate(456 370)"><rect width="152" height="76" rx="14" fill="#ffffff" stroke="#d49b3d" stroke-width="3"/><text x="76" y="31" text-anchor="middle" class="nodeName">裂颅一击</text><text x="76" y="56" text-anchor="middle" class="nodeMeta">头部破甲</text></g>
    <g transform="translate(716 370)"><rect width="152" height="76" rx="14" fill="#ffffff" stroke="#d49b3d" stroke-width="3"/><text x="76" y="31" text-anchor="middle" class="nodeName">破甲窗口</text><text x="76" y="56" text-anchor="middle" class="nodeMeta">建议新增桥</text></g>
    <g transform="translate(976 338)"><rect width="152" height="76" rx="14" fill="#ffffff" stroke="#d49b3d" stroke-width="3"/><text x="76" y="31" text-anchor="middle" class="nodeName">大地震击</text><text x="76" y="56" text-anchor="middle" class="nodeMeta">伤害+眩晕</text></g>
    <g transform="translate(976 406)"><rect width="152" height="76" rx="14" fill="#ffffff" stroke="#d49b3d" stroke-width="3"/><text x="76" y="31" text-anchor="middle" class="nodeName">斩首</text><text x="76" y="56" text-anchor="middle" class="nodeMeta">低血处决</text></g>
    <g transform="translate(1234 338)"><rect width="152" height="76" rx="14" fill="#ffffff" stroke="#d49b3d" stroke-width="3"/><text x="76" y="31" text-anchor="middle" class="nodeName">诸神黄昏</text><text x="76" y="56" text-anchor="middle" class="nodeMeta">终局群体</text></g>

    <g transform="translate(208 546)"><rect width="140" height="76" rx="14" fill="#ffffff" stroke="#c96b5f" stroke-width="3"/><text x="70" y="31" text-anchor="middle" class="nodeName">锯齿斩</text><text x="70" y="56" text-anchor="middle" class="nodeMeta">流血入口</text></g>
    <g transform="translate(456 546)"><rect width="152" height="76" rx="14" fill="#fffdf7" stroke="#c96b5f" stroke-width="3"/><text x="76" y="28" text-anchor="middle" class="nodeName">撕裂伤口</text><text x="76" y="52" text-anchor="middle" class="warn">补“行动增流血”</text></g>
    <g transform="translate(716 510)"><rect width="152" height="76" rx="14" fill="#fffdf7" stroke="#c96b5f" stroke-width="3"/><text x="76" y="28" text-anchor="middle" class="nodeName">迸发</text><text x="76" y="52" text-anchor="middle" class="warn">按流血结算</text></g>
    <g transform="translate(716 582)"><rect width="152" height="76" rx="14" fill="#fffdf7" stroke="#c96b5f" stroke-width="3"/><text x="76" y="28" text-anchor="middle" class="nodeName">吸血</text><text x="76" y="52" text-anchor="middle" class="warn">改成回血/吸甲</text></g>
    <g transform="translate(976 510)"><rect width="152" height="76" rx="14" fill="#fffdf7" stroke="#c96b5f" stroke-width="3"/><text x="76" y="28" text-anchor="middle" class="nodeName">愤怒</text><text x="76" y="52" text-anchor="middle" class="warn">补受伤加攻 Buff</text></g>
    <g transform="translate(976 582)"><rect width="152" height="76" rx="14" fill="#ffffff" stroke="#c96b5f" stroke-width="3"/><text x="76" y="31" text-anchor="middle" class="nodeName">鲜血打击</text><text x="76" y="56" text-anchor="middle" class="nodeMeta">自伤换输出</text></g>
    <g transform="translate(1234 510)"><rect width="152" height="76" rx="14" fill="#ffffff" stroke="#c96b5f" stroke-width="3"/><text x="76" y="31" text-anchor="middle" class="nodeName">血甲转化</text><text x="76" y="56" text-anchor="middle" class="nodeMeta">建议新增桥</text></g>

    <g transform="translate(208 722)"><rect width="140" height="76" rx="14" fill="#ffffff" stroke="#6f9fca" stroke-width="3"/><text x="70" y="31" text-anchor="middle" class="nodeName">剑砍</text><text x="70" y="56" text-anchor="middle" class="nodeMeta">低费入口</text></g>
    <g transform="translate(456 722)"><rect width="152" height="76" rx="14" fill="#ffffff" stroke="#6f9fca" stroke-width="3"/><text x="76" y="31" text-anchor="middle" class="nodeName">转进如风</text><text x="76" y="56" text-anchor="middle" class="nodeMeta">加速</text></g>
    <g transform="translate(716 686)"><rect width="152" height="76" rx="14" fill="#ffffff" stroke="#6f9fca" stroke-width="3"/><text x="76" y="31" text-anchor="middle" class="nodeName">后撤步</text><text x="76" y="56" text-anchor="middle" class="nodeMeta">弃腿甲免伤</text></g>
    <g transform="translate(716 758)"><rect width="152" height="76" rx="14" fill="#ffffff" stroke="#6f9fca" stroke-width="3"/><text x="76" y="31" text-anchor="middle" class="nodeName">提桶跑路</text><text x="76" y="56" text-anchor="middle" class="nodeMeta">清甲回血</text></g>
    <g transform="translate(976 686)"><rect width="152" height="76" rx="14" fill="#ffffff" stroke="#6f9fca" stroke-width="3"/><text x="76" y="31" text-anchor="middle" class="nodeName">松绑</text><text x="76" y="56" text-anchor="middle" class="nodeMeta">清敌护甲</text></g>
    <g transform="translate(1234 686)"><rect width="152" height="76" rx="14" fill="#ffffff" stroke="#6f9fca" stroke-width="3"/><text x="76" y="31" text-anchor="middle" class="nodeName">重新开始</text><text x="76" y="56" text-anchor="middle" class="nodeMeta">降技能开销</text></g>

    <g transform="translate(208 898)"><rect width="140" height="76" rx="14" fill="#ffffff" stroke="#a487c1" stroke-width="3"/><text x="70" y="31" text-anchor="middle" class="nodeName">治疗</text><text x="70" y="56" text-anchor="middle" class="nodeMeta">基础保底</text></g>
    <g transform="translate(456 898)"><rect width="152" height="76" rx="14" fill="#ffffff" stroke="#a487c1" stroke-width="3"/><text x="76" y="31" text-anchor="middle" class="nodeName">临期食品</text><text x="76" y="56" text-anchor="middle" class="nodeMeta">回血/护甲+副作用</text></g>
    <g transform="translate(716 898)"><rect width="152" height="76" rx="14" fill="#fffdf7" stroke="#a487c1" stroke-width="3"/><text x="76" y="28" text-anchor="middle" class="nodeName">闹肚子</text><text x="76" y="52" text-anchor="middle" class="warn">建议新增负面 Buff</text></g>
  </g>

  <g transform="translate(1448 360)">
    <rect width="360" height="244" rx="22" fill="#ffffff" stroke="#d2d8dc" stroke-width="2"/>
    <text x="28" y="42" class="legend">关键调整点</text>
    <text x="28" y="78" class="small">1. 自由横跳靠虚线桥接，不靠互斥路线。</text>
    <text x="28" y="112" class="small">2. 梗名保留，但描述、动作、Buff 必须一致。</text>
    <text x="28" y="146" class="small">3. 需要新增/补全的不是大量技能，</text>
    <text x="48" y="172" class="small">而是少量“机制 Buff”。</text>
    <text x="28" y="206" class="small">4. 测试/演示节点继续隐藏或迁出正式包。</text>
  </g>

  <g transform="translate(1448 640)">
    <rect width="360" height="224" rx="22" fill="#1f2c34" opacity="0.94"/>
    <text x="28" y="42" class="legend" fill="#f5f0e8">建议 KP 节奏</text>
    <text x="28" y="80" class="small" fill="#f5f0e8">入口：1-2 KP，第一关就能换方向。</text>
    <text x="28" y="116" class="small" fill="#f5f0e8">桥接：2-3 KP，第二三关形成组合。</text>
    <text x="28" y="152" class="small" fill="#f5f0e8">核心：3-5 KP，让构筑开始成型。</text>
    <text x="28" y="188" class="small" fill="#f5f0e8">终局：8 KP，只奖励已成型玩法。</text>
  </g>
</svg>
